<svg width="64" height="51" viewBox="0 0 64 51" fill="none" xmlns="http://www.w3.org/2000/svg">
<path d="M63 48.0041H46.55V19.0041H49.45C49.7152 19.0041 49.9696 18.8987 50.1571 18.7112C50.3446 18.5236 50.45 18.2693 50.45 18.0041V14.0041C50.45 13.7388 50.3446 13.4845 50.1571 13.2969C49.9696 13.1094 49.7152 13.0041 49.45 13.0041H46.55V1.00405C46.55 0.738838 46.4446 0.484484 46.2571 0.296948C46.0696 0.109411 45.8152 0.00405453 45.55 0.00405453H35.77C35.12 -0.0959455 33.87 1.68405 33.43 2.00405H21.33C21.0648 2.00405 20.8104 2.10941 20.6229 2.29695C20.4354 2.48448 20.33 2.73884 20.33 3.00405V15.4841C20.25 15.5941 17.33 18.4841 17.5 18.4841C17.4488 18.6043 17.4216 18.7334 17.42 18.8641V30.0041H14.52C14.2548 30.0041 14.0004 30.1094 13.8129 30.2969C13.6254 30.4845 13.52 30.7388 13.52 31.0041V35.0041C13.52 35.2693 13.6254 35.5236 13.8129 35.7112C14.0004 35.8987 14.2548 36.0041 14.52 36.0041H17.42V48.0041H9.6V44.1741L11.12 45.7341C11.8 46.4441 12.82 45.3341 12.12 44.6741L9.6 42.0541V41.3241L11.12 42.8941C11.8 43.5941 12.82 42.4941 12.12 41.8341L9.6 39.2041V38.4741L11.12 40.0041C11.8 40.7041 12.82 39.6041 12.12 38.9441L9.6 36.3541V35.6241L11.12 37.1941C11.8 37.8941 12.82 36.7941 12.12 36.1341L9.6 33.5041V32.7841L11.12 34.3441C11.79 35.0541 12.82 33.9441 12.12 33.2841L9.39 30.4441C9.32482 30.3775 9.24703 30.3247 9.16117 30.2886C9.07532 30.2525 8.98313 30.234 8.89 30.234C8.79687 30.234 8.70468 30.2525 8.61882 30.2886C8.53297 30.3247 8.45518 30.3775 8.39 30.4441L5.6 33.2841C4.93 33.9441 5.95 35.0541 6.6 34.3441L8.12 32.7841V33.5041L5.6 36.1341C4.93 36.7941 5.95 37.8941 6.6 37.1941L8.12 35.6241V36.3541L5.6 39.0041C4.93 39.6641 5.95 40.7641 6.6 40.0641L8.12 38.4941V39.2241L5.6 41.8341C4.93 42.4941 5.95 43.5941 6.6 42.8941L8.12 41.3241V42.0541L5.6 44.6741C4.93 45.3341 5.95 46.4441 6.6 45.7341L8.12 44.1741V48.0041H1C0.734784 48.0041 0.48043 48.1094 0.292893 48.2969C0.105357 48.4845 0 48.7388 0 49.0041C0 49.2693 0.105357 49.5236 0.292893 49.7112C0.48043 49.8987 0.734784 50.0041 1 50.0041H63C63.2652 50.0041 63.5196 49.8987 63.7071 49.7112C63.8946 49.5236 64 49.2693 64 49.0041C64 48.7388 63.8946 48.4845 63.7071 48.2969C63.5196 48.1094 63.2652 48.0041 63 48.0041ZM22.3 4.00405H31.49L22.3 13.4841V4.00405ZM15.52 34.0041V32.0041H31V34.0041H15.52ZM44.61 48.0041H38.79V36.0041H44.61V48.0041ZM44.61 34.0041H37.82C37.5548 34.0041 37.3004 34.1094 37.1129 34.2969C36.9254 34.4845 36.82 34.7388 36.82 35.0041V48.0041H19.39V36.0041H32C32.2652 36.0041 32.5196 35.8987 32.7071 35.7112C32.8946 35.5236 33 35.2693 33 35.0041V31.0041C33 30.7388 32.8946 30.4845 32.7071 30.2969C32.5196 30.1094 32.2652 30.0041 32 30.0041H19.39V19.3041L36.17 2.00405H44.61V13.0041H32C31.7348 13.0041 31.4804 13.1094 31.2929 13.2969C31.1054 13.4845 31 13.7388 31 14.0041V18.0041C31 18.2693 31.1054 18.5236 31.2929 18.7112C31.4804 18.8987 31.7348 19.0041 32 19.0041H44.61V34.0041ZM33 17.0041V15.0041H48.48V17.0041H33Z" fill="white"/>
</svg>
