<svg width="64" height="50" viewBox="0 0 64 50" fill="none" xmlns="http://www.w3.org/2000/svg">
<path d="M63 47.9832H60.12V19.9832C60.1222 19.7634 60.0519 19.549 59.92 19.3732L53.13 10.3732C53.0361 10.2617 52.919 10.172 52.7869 10.1105C52.6547 10.049 52.5107 10.0172 52.365 10.0172C52.2193 10.0172 52.0753 10.049 51.9431 10.1105C51.811 10.172 51.6939 10.2617 51.6 10.3732L44.81 19.3732C44.41 19.7332 44.69 21.7632 44.61 22.2332H40.73V11.8132C40.7308 11.6768 40.7038 11.5417 40.6505 11.4161C40.5972 11.2906 40.5187 11.1773 40.42 11.0832L29.27 0.253157C29.0869 0.0900936 28.8502 0 28.605 0C28.3598 0 28.1231 0.0900936 27.94 0.253157L18.64 9.25316L14.3 4.25316C14.2037 4.16287 14.0906 4.09252 13.967 4.04618C13.8434 3.99984 13.7119 3.97842 13.58 3.98316C13.4432 3.98246 13.3079 4.01163 13.1835 4.06862C13.0592 4.12562 12.9488 4.20907 12.86 4.31316L4.13 14.3132C3.96693 14.498 3.8779 14.7366 3.88 14.9832V47.9832H1C0.734784 47.9832 0.48043 48.0885 0.292893 48.2761C0.105357 48.4636 0 48.7179 0 48.9832C0 49.2484 0.105357 49.5027 0.292893 49.6903C0.48043 49.8778 0.734784 49.9832 1 49.9832H63C63.2652 49.9832 63.5196 49.8778 63.7071 49.6903C63.8946 49.5027 64 49.2484 64 48.9832C64 48.7179 63.8946 48.4636 63.7071 48.2761C63.5196 48.0885 63.2652 47.9832 63 47.9832ZM44.61 44.2332H40.73V34.7332H44.61V44.2332ZM40.73 45.7332H44.61V47.9832H40.73V45.7332ZM44.61 23.7332V33.2332H40.73V23.7332H44.61ZM28.61 2.35316L38.79 12.2432V27.3532L30.27 18.2832C30.0835 18.1029 29.8343 18.0022 29.575 18.0022C29.3157 18.0022 29.0665 18.1029 28.88 18.2832L23.27 24.2832V14.9832C23.47 14.4532 20.18 11.2032 19.94 10.7732L28.61 2.35316ZM5.82 47.9832V15.3632L13.58 6.48316L21.33 15.3632V26.3632C21.02 26.8432 18.33 29.2332 18.42 29.8632V47.9832H5.82ZM22.3 47.9832H20.36V30.2232L29.58 20.4232L38.79 30.2232V47.9832H22.3ZM46.55 47.9832V20.3232L52.36 12.6132L58.18 20.3232V47.9832H46.55Z" fill="white"/>
<path d="M15.52 34.2332H9.7C9.50901 34.2435 9.32944 34.3273 9.19894 34.4672C9.06843 34.607 8.99714 34.7919 9 34.9832V40.9832C8.99868 41.0803 9.01651 41.1768 9.05248 41.2671C9.08846 41.3574 9.14186 41.4397 9.20965 41.5094C9.27744 41.579 9.35828 41.6346 9.44756 41.673C9.53685 41.7114 9.63282 41.7319 9.73 41.7332H15.55C15.7445 41.7279 15.9291 41.6463 16.0639 41.5059C16.1987 41.3655 16.2727 41.1777 16.27 40.9832V34.9832C16.2713 34.8843 16.2529 34.7862 16.2156 34.6946C16.1784 34.603 16.1232 34.5197 16.0533 34.4498C15.9834 34.3799 15.9002 34.3247 15.8086 34.2875C15.717 34.2503 15.6189 34.2318 15.52 34.2332ZM14.79 40.2332H10.42V35.7332H14.79V40.2332Z" fill="white"/>
<path d="M33 17.7332H36.88C36.9772 17.7319 37.0731 17.7114 37.1624 17.673C37.2517 17.6346 37.3326 17.579 37.4003 17.5094C37.4681 17.4397 37.5215 17.3574 37.5575 17.2671C37.5935 17.1768 37.6113 17.0803 37.61 16.9832V12.9832C37.6113 12.886 37.5935 12.7895 37.5575 12.6992C37.5215 12.6089 37.4681 12.5266 37.4003 12.4569C37.3326 12.3873 37.2517 12.3317 37.1624 12.2933C37.0731 12.2549 36.9772 12.2345 36.88 12.2332H33C32.9028 12.2345 32.8068 12.2549 32.7176 12.2933C32.6283 12.3317 32.5474 12.3873 32.4796 12.4569C32.4119 12.5266 32.3585 12.6089 32.3225 12.6992C32.2865 12.7895 32.2687 12.886 32.27 12.9832V16.9832C32.2687 17.0803 32.2865 17.1768 32.3225 17.2671C32.3585 17.3574 32.4119 17.4397 32.4796 17.5094C32.5474 17.579 32.6283 17.6346 32.7176 17.673C32.8068 17.7114 32.9028 17.7319 33 17.7332ZM33.73 13.7332H36.15V16.2332H33.7L33.73 13.7332Z" fill="white"/>
<path d="M56.24 24.2332H53.33C53.1355 24.2384 52.9509 24.32 52.8161 24.4604C52.6813 24.6008 52.6073 24.7886 52.61 24.9832V38.9832C52.6073 39.1777 52.6813 39.3655 52.8161 39.5059C52.9509 39.6463 53.1355 39.7279 53.33 39.7332H56.24C56.3397 39.7359 56.4389 39.7184 56.5317 39.6818C56.6244 39.6452 56.7089 39.5902 56.7798 39.5201C56.8508 39.4501 56.9069 39.3664 56.9448 39.2741C56.9826 39.1818 57.0014 39.0829 57 38.9832V24.9832C57.0014 24.8834 56.9826 24.7845 56.9448 24.6922C56.9069 24.5999 56.8508 24.5162 56.7798 24.4462C56.7089 24.3761 56.6244 24.3211 56.5317 24.2845C56.4389 24.2479 56.3397 24.2304 56.24 24.2332ZM55.52 38.2332H54.06V25.7332H55.52V38.2332Z" fill="white"/>
</svg>
