<svg width="64" height="50" viewBox="0 0 64 50" fill="none" xmlns="http://www.w3.org/2000/svg">
<path d="M63 47.9858H48.48V17.9858C48.4844 17.7311 48.3914 17.4843 48.22 17.2958L32.71 0.295798C32.617 0.20207 32.5064 0.127676 32.3846 0.0769069C32.2627 0.0261382 32.132 0 32 0C31.868 0 31.7373 0.0261382 31.6154 0.0769069C31.4936 0.127676 31.383 0.20207 31.29 0.295798L15.78 17.2958C15.6086 17.4843 15.5156 17.7311 15.52 17.9858V47.9858H10.57V44.1558L12.09 45.7158C12.77 46.4258 13.79 45.3158 13.09 44.6558L10.54 42.0358V41.3058L12.06 42.8758C12.74 43.5758 13.76 42.4758 13.06 41.8158L10.57 39.1858V38.4558L12.09 39.9858C12.77 40.6858 13.79 39.5858 13.09 38.9258L10.54 36.2958V35.5658L12.06 37.1358C12.74 37.8358 13.76 36.7358 13.06 36.0758L10.57 33.4858V32.7658L12.09 34.3258C12.76 35.0358 13.79 33.9258 13.09 33.2658L10.33 30.4258C10.2648 30.3593 10.187 30.3064 10.1012 30.2704C10.0153 30.2343 9.92313 30.2157 9.83 30.2157C9.73687 30.2157 9.64468 30.2343 9.55883 30.2704C9.47297 30.3064 9.39518 30.3593 9.33 30.4258L6.57 33.2658C5.9 33.9258 6.92 35.0358 7.57 34.3258L9.09 32.7658V33.4858L6.57 36.1158C5.9 36.7758 6.92 37.8758 7.57 37.1758L9.09 35.6058V36.3358L6.57 38.9858C5.9 39.6458 6.92 40.7458 7.57 40.0458L9.09 38.4758V39.2058L6.57 41.8158C5.9 42.4758 6.92 43.5758 7.57 42.8758L9.09 41.3058V42.0358L6.57 44.6558C5.9 45.3158 6.92 46.4258 7.57 45.7158L9.09 44.1558V47.9858H1C0.734784 47.9858 0.48043 48.0912 0.292893 48.2787C0.105357 48.4662 0 48.7206 0 48.9858C0 49.251 0.105357 49.5054 0.292893 49.6929C0.48043 49.8804 0.734784 49.9858 1 49.9858H63C63.2652 49.9858 63.5196 49.8804 63.7071 49.6929C63.8946 49.5054 64 49.251 64 48.9858C64 48.7206 63.8946 48.4662 63.7071 48.2787C63.5196 48.0912 63.2652 47.9858 63 47.9858ZM35.15 47.9858H28.85V32.7358H35.15V47.9858ZM46.55 47.9858H36.61V38.7358H46.55V47.9858ZM46.55 37.2358H36.61V35.7358H46.55V37.2358ZM46.55 34.2358H36.61V32.7358H46.55V34.2358ZM46.55 31.2358H28.12C28.0228 31.2371 27.9268 31.2575 27.8376 31.2959C27.7483 31.3343 27.6674 31.3899 27.5996 31.4596C27.5319 31.5292 27.4785 31.6116 27.4425 31.7018C27.4065 31.7921 27.3887 31.8886 27.39 31.9858V47.9858H17.45V18.3858L32 2.4458L46.55 18.3858V31.2358Z" fill="white"/>
</svg>
