<svg width="64" height="50" viewBox="0 0 64 50" fill="none" xmlns="http://www.w3.org/2000/svg">
<path d="M63 48H58.18V1C58.18 0.734784 58.0746 0.48043 57.8871 0.292893C57.6996 0.105357 57.4452 0 57.18 0H39.42C39.1548 0 38.9004 0.105357 38.7129 0.292893C38.5254 0.48043 38.42 0.734784 38.42 1V7H14.8C14.5348 7 14.2804 7.10536 14.0929 7.29289C13.9054 7.48043 13.8 7.73478 13.8 8V26H6.8C6.53478 26 6.28043 26.1054 6.09289 26.2929C5.90536 26.4804 5.8 26.7348 5.8 27V48H1C0.734784 48 0.48043 48.1054 0.292893 48.2929C0.105357 48.4804 0 48.7348 0 49C0 49.2652 0.105357 49.5196 0.292893 49.7071C0.48043 49.8946 0.734784 50 1 50H63C63.2652 50 63.5196 49.8946 63.7071 49.7071C63.8946 49.5196 64 49.2652 64 49C64 48.7348 63.8946 48.4804 63.7071 48.2929C63.5196 48.1054 63.2652 48 63 48ZM15.77 9H45.86V16.25H32.23V13C32.2327 12.8054 32.1587 12.6176 32.0239 12.4773C31.8891 12.3369 31.7045 12.2552 31.51 12.25H18.65C18.4555 12.2552 18.2709 12.3369 18.1361 12.4773C18.0013 12.6176 17.9273 12.8054 17.93 13V27C17.9273 27.1946 18.0013 27.3824 18.1361 27.5227C18.2709 27.6631 18.4555 27.7448 18.65 27.75H31.51C31.7045 27.7448 31.8891 27.6631 32.0239 27.5227C32.1587 27.3824 32.2327 27.1946 32.23 27V23.75H45.86V32H15.77V9ZM50.31 48H41.37V34H46.83C47.0952 34 47.3496 33.8946 47.5371 33.7071C47.7246 33.5196 47.83 33.2652 47.83 33V28H50.34L50.31 48ZM39.43 34V48H27.53V34H39.43ZM19.43 26.25V20.75H23.91V26.25H19.43ZM30.83 13.75V19.25H25.31V13.75H30.83ZM23.91 19.25H19.38V13.75H23.86L23.91 19.25ZM25.36 20.75H30.83V26.25H25.31L25.36 20.75ZM32.28 17.75H45.86V22.25H32.23L32.28 17.75ZM7.76 28H13.83V33C13.83 33.2652 13.9354 33.5196 14.1229 33.7071C14.3104 33.8946 14.5648 34 14.83 34H17.71V48H7.76V28ZM19.62 48V34H25.62V48H19.62ZM52.25 48V27C52.25 26.7348 52.1446 26.4804 51.9571 26.2929C51.7696 26.1054 51.5152 26 51.25 26H47.8V8C47.8 7.73478 47.6946 7.48043 47.5071 7.29289C47.3196 7.10536 47.0652 7 46.8 7H40.39V2H56.24V48H52.25Z" fill="white"/>
</svg>
